<svg
 xmlns="http://www.w3.org/2000/svg"
 xmlns:xlink="http://www.w3.org/1999/xlink"
 width="36px" height="37px">
<path fill-rule="evenodd"  fill="rgb(255, 255, 255)"
 d="M35.000,21.781 L29.781,21.781 L28.781,21.781 L28.781,0.000 L29.781,0.000 L35.000,0.000 L36.000,0.000 L36.000,21.781 L35.000,21.781 ZM22.080,32.223 C22.330,35.840 21.613,36.836 19.905,37.014 C18.198,37.192 14.990,36.259 14.427,30.338 C14.184,27.776 16.011,22.731 16.011,22.731 C16.011,22.731 4.359,22.723 3.227,22.723 C1.417,22.723 -0.001,21.948 -0.001,19.476 C-0.001,17.159 2.556,16.463 2.556,16.463 C2.556,16.463 0.920,15.822 0.920,13.875 C0.920,11.902 2.623,11.013 3.744,11.013 C3.046,10.666 2.072,9.998 2.286,8.311 C2.501,6.625 3.702,6.011 4.888,5.647 C4.121,5.173 3.563,3.862 3.990,2.854 C4.564,1.496 6.079,-0.000 9.482,-0.000 C13.599,-0.000 24.923,-0.000 25.375,-0.000 C26.580,-0.000 27.475,0.551 27.662,1.229 C27.662,2.621 27.662,19.820 27.662,19.820 C27.662,19.820 27.662,20.417 27.572,20.573 C23.333,26.824 21.829,28.605 22.080,32.223 Z"/>
</svg>
