<svg
 xmlns="http://www.w3.org/2000/svg"
 xmlns:xlink="http://www.w3.org/1999/xlink"
 width="24px" height="26px">
<path fill-rule="evenodd"  fill="rgb(255, 255, 255)"
 d="M10.262,1.591 C14.662,1.591 18.945,4.470 18.945,10.217 C18.945,15.963 14.662,18.842 10.262,18.842 C5.861,18.842 1.579,15.963 1.579,10.217 C1.579,4.470 5.861,1.591 10.262,1.591 ZM10.262,-0.000 C5.190,-0.000 -0.000,3.402 -0.000,10.217 C-0.000,17.032 5.190,20.433 10.262,20.433 C12.169,20.433 14.093,19.953 15.752,18.990 L22.421,26.000 L24.000,24.409 L17.556,17.641 C19.341,15.942 20.524,13.467 20.524,10.217 C20.524,3.402 15.334,-0.000 10.262,-0.000 Z"/>
</svg>
